<svg width="18" height="18" viewBox="0 0 18 18" fill="none" xmlns="http://www.w3.org/2000/svg">
<g clip-path="url(#clip0_403_194)">
<g clip-path="url(#clip1_403_194)">
<path d="M2.664 4.412C2.124 4.412 1.68 4.256 1.332 3.944C0.996 3.62 0.828 3.224 0.828 2.756C0.828 2.276 0.996 1.88 1.332 1.568C1.68 1.244 2.124 1.082 2.664 1.082C3.192 1.082 3.624 1.244 3.96 1.568C4.308 1.88 4.482 2.276 4.482 2.756C4.482 3.224 4.308 3.62 3.96 3.944C3.624 4.256 3.192 4.412 2.664 4.412ZM4.194 5.456V15.5H1.116V5.456H4.194ZM12.5446 5.348C13.7206 5.348 14.6566 5.732 15.3526 6.5C16.0606 7.256 16.4146 8.3 16.4146 9.632V15.5H13.3546V10.046C13.3546 9.374 13.1806 8.852 12.8326 8.48C12.4846 8.108 12.0166 7.922 11.4286 7.922C10.8406 7.922 10.3726 8.108 10.0246 8.48C9.67659 8.852 9.50259 9.374 9.50259 10.046V15.5H6.42459V5.456H9.50259V6.788C9.81459 6.344 10.2346 5.996 10.7626 5.744C11.2906 5.48 11.8846 5.348 12.5446 5.348Z" fill="#A8B2D1"/>
</g>
</g>
<defs>
<clipPath id="clip0_403_194">
<rect width="18" height="18" fill="white"/>
</clipPath>
<clipPath id="clip1_403_194">
<rect width="18" height="18" rx="5" fill="white"/>
</clipPath>
</defs>
</svg>
