<svg width="48" height="48" viewBox="0 0 48 48" fill="none" xmlns="http://www.w3.org/2000/svg">
<circle cx="24" cy="24" r="22.5" stroke="#64FFDA" stroke-width="3"/>
<path d="M22.5 35.8125C22.5 36.6409 23.1716 37.3125 24 37.3125C24.8284 37.3125 25.5 36.6409 25.5 35.8125H22.5ZM25.0607 11.7831C24.4749 11.1973 23.5251 11.1973 22.9393 11.7831L13.3934 21.329C12.8076 21.9148 12.8076 22.8646 13.3934 23.4504C13.9792 24.0361 14.9289 24.0361 15.5147 23.4504L24 14.9651L32.4853 23.4504C33.0711 24.0361 34.0208 24.0361 34.6066 23.4504C35.1924 22.8646 35.1924 21.9148 34.6066 21.329L25.0607 11.7831ZM25.5 35.8125L25.5 12.8438H22.5L22.5 35.8125H25.5Z" fill="#64FFDA"/>
</svg>
