<svg width="48" height="48" viewBox="0 0 48 48" fill="none" xmlns="http://www.w3.org/2000/svg">
<path d="M1.5 29.7001C2.32843 29.7001 3 30.3716 3 31.2001V38.7001C3 40.3569 4.34315 41.7001 6 41.7001H42C43.6569 41.7001 45 40.3569 45 38.7001V31.2001C45 30.3716 45.6716 29.7001 46.5 29.7001C47.3284 29.7001 48 30.3716 48 31.2001V38.7001C48 42.0138 45.3137 44.7001 42 44.7001H6C2.68629 44.7001 0 42.0138 0 38.7001V31.2001C0 30.3716 0.671573 29.7001 1.5 29.7001Z" fill="#64FFDA"/>
<path d="M22.9393 35.5607C23.5251 36.1464 24.4749 36.1464 25.0607 35.5607L34.0607 26.5607C34.6464 25.9749 34.6464 25.0251 34.0607 24.4393C33.4749 23.8536 32.5251 23.8536 31.9393 24.4393L25.5 30.8787V4.5C25.5 3.67157 24.8284 3 24 3C23.1716 3 22.5 3.67157 22.5 4.5V30.8787L16.0607 24.4393C15.4749 23.8536 14.5251 23.8536 13.9393 24.4393C13.3536 25.0251 13.3536 25.9749 13.9393 26.5607L22.9393 35.5607Z" fill="#64FFDA"/>
</svg>
