<svg width="48" height="48" viewBox="0 0 48 48" fill="none" xmlns="http://www.w3.org/2000/svg">
<path d="M34 7H14C8 7 4 10 4 17V31C4 38 8 41 14 41H34C40 41 44 38 44 31V17C44 10 40 7 34 7ZM34.94 19.18L28.68 24.18C27.36 25.24 25.68 25.76 24 25.76C22.32 25.76 20.62 25.24 19.32 24.18L13.06 19.18C12.42 18.66 12.32 17.7 12.82 17.06C13.34 16.42 14.28 16.3 14.92 16.82L21.18 21.82C22.7 23.04 25.28 23.04 26.8 21.82L33.06 16.82C33.7 16.3 34.66 16.4 35.16 17.06C35.68 17.7 35.58 18.66 34.94 19.18Z" fill="#64FFDA"/>
</svg>
