<svg width="48" height="48" viewBox="0 0 48 48" fill="none" xmlns="http://www.w3.org/2000/svg">
<path d="M24 2C11.845 2 2 11.845 2 24C2 33.735 8.2975 41.9575 17.0425 44.8725C18.1425 45.065 18.555 44.405 18.555 43.8275C18.555 43.305 18.5275 41.5725 18.5275 39.73C13 40.7475 11.57 38.3825 11.13 37.145C10.8825 36.5125 9.81 34.56 8.875 34.0375C8.105 33.625 7.005 32.6075 8.8475 32.58C10.58 32.5525 11.8175 34.175 12.23 34.835C14.21 38.1625 17.3725 37.2275 18.6375 36.65C18.83 35.22 19.4075 34.2575 20.04 33.7075C15.145 33.1575 10.03 31.26 10.03 22.845C10.03 20.4525 10.8825 18.4725 12.285 16.9325C12.065 16.3825 11.295 14.1275 12.505 11.1025C12.505 11.1025 14.3475 10.525 18.555 13.3575C20.315 12.8625 22.185 12.615 24.055 12.615C25.925 12.615 27.795 12.8625 29.555 13.3575C33.7625 10.4975 35.605 11.1025 35.605 11.1025C36.815 14.1275 36.045 16.3825 35.825 16.9325C37.2275 18.4725 38.08 20.425 38.08 22.845C38.08 31.2875 32.9375 33.1575 28.0425 33.7075C28.84 34.395 29.5275 35.715 29.5275 37.7775C29.5275 40.72 29.5 43.085 29.5 43.8275C29.5 44.405 29.9125 45.0925 31.0125 44.8725C35.3799 43.3981 39.175 40.5912 41.8636 36.847C44.5521 33.1027 45.9988 28.6096 46 24C46 11.845 36.155 2 24 2Z" fill="#64FFDA"/>
</svg>
