<svg width="48" height="48" viewBox="0 0 48 48" fill="none" xmlns="http://www.w3.org/2000/svg">
<g clip-path="url(#clip0_358_177)">
<rect x="3" y="3" width="42" height="42" rx="13" fill="#64FFDA"/>
<path d="M12.532 14.556C11.512 14.556 10.6733 14.2613 10.016 13.672C9.38133 13.06 9.064 12.312 9.064 11.428C9.064 10.5213 9.38133 9.77333 10.016 9.184C10.6733 8.572 11.512 8.266 12.532 8.266C13.5293 8.266 14.3453 8.572 14.98 9.184C15.6373 9.77333 15.966 10.5213 15.966 11.428C15.966 12.312 15.6373 13.06 14.98 13.672C14.3453 14.2613 13.5293 14.556 12.532 14.556ZM15.422 16.528V35.5H9.608V16.528H15.422ZM31.1953 16.324C33.4167 16.324 35.1847 17.0493 36.4993 18.5C37.8367 19.928 38.5053 21.9 38.5053 24.416V35.5H32.7253V25.198C32.7253 23.9287 32.3967 22.9427 31.7393 22.24C31.082 21.5373 30.198 21.186 29.0873 21.186C27.9767 21.186 27.0927 21.5373 26.4353 22.24C25.778 22.9427 25.4493 23.9287 25.4493 25.198V35.5H19.6353V16.528H25.4493V19.044C26.0387 18.2053 26.832 17.548 27.8293 17.072C28.8267 16.5733 29.9487 16.324 31.1953 16.324Z" fill="#020C1B"/>
</g>
<defs>
<clipPath id="clip0_358_177">
<rect x="3" y="3" width="42" height="42" rx="13" fill="white"/>
</clipPath>
</defs>
</svg>
