<svg width="48" height="48" viewBox="0 0 48 48" fill="none" xmlns="http://www.w3.org/2000/svg">
<path d="M22.1 29.9L18.4 33.6C17.62 34.38 16.38 34.38 15.58 33.62C15.36 33.4 15.14 33.2 14.92 32.98C12.86 30.9 11 28.72 9.34 26.44C7.7 24.16 6.38 21.88 5.42 19.62C4.48 17.34 4 15.16 4 13.08C4 11.72 4.24 10.42 4.72 9.22C5.2 8 5.96 6.88 7.02 5.88C8.3 4.62 9.7 4 11.18 4C11.74 4 12.3 4.12 12.8 4.36C13.32 4.6 13.78 4.96 14.14 5.48L18.78 12.02C19.14 12.52 19.4 12.98 19.58 13.42C19.76 13.84 19.86 14.26 19.86 14.64C19.86 15.12 19.72 15.6 19.44 16.06C19.18 16.52 18.8 17 18.32 17.48L16.8 19.06C16.58 19.28 16.48 19.54 16.48 19.86C16.48 20.02 16.5 20.16 16.54 20.32C16.6 20.48 16.66 20.6 16.7 20.72C17.06 21.38 17.68 22.24 18.56 23.28C19.46 24.32 20.42 25.38 21.46 26.44C21.66 26.64 21.88 26.84 22.08 27.04C22.88 27.82 22.9 29.1 22.1 29.9Z" fill="#64FFDA"/>
<path d="M43.9399 36.66C43.9399 37.22 43.8399 37.8 43.6399 38.36C43.5799 38.52 43.5199 38.68 43.4399 38.84C43.0999 39.56 42.66 40.24 42.08 40.88C41.1 41.96 40.0199 42.74 38.7999 43.24C38.7799 43.24 38.76 43.26 38.74 43.26C37.56 43.74 36.28 44 34.9 44C32.86 44 30.6799 43.52 28.3799 42.54C26.0799 41.56 23.78 40.24 21.5 38.58C20.72 38 19.94 37.42 19.2 36.8L25.74 30.26C26.3 30.68 26.7999 31 27.2199 31.22C27.3199 31.26 27.44 31.32 27.58 31.38C27.74 31.44 27.9 31.46 28.08 31.46C28.42 31.46 28.68 31.34 28.9 31.12L30.42 29.62C30.92 29.12 31.4 28.74 31.86 28.5C32.32 28.22 32.7799 28.08 33.2799 28.08C33.6599 28.08 34.06 28.16 34.5 28.34C34.94 28.52 35.4 28.78 35.9 29.12L42.52 33.82C43.04 34.18 43.3999 34.6 43.6199 35.1C43.8199 35.6 43.9399 36.1 43.9399 36.66Z" fill="#64FFDA"/>
</svg>
